solid Mesh
  facet normal 1 0 0
    outer loop
      vertex -10.75 41 30
      vertex -10.75 41 21.5
      vertex -10.75 42 30
    endloop
  endfacet
  facet normal 1 0 0
    outer loop
      vertex -10.75 41 21.5
      vertex -10.75 42 21.5
      vertex -10.75 42 30
    endloop
  endfacet
  facet normal 0 0 1
    outer loop
      vertex -10.75 41 21.5
      vertex -5.25 41 21.5
      vertex -10.75 42 21.5
    endloop
  endfacet
  facet normal 0 0 1
    outer loop
      vertex -5.25 41 21.5
      vertex -5.25 42 21.5
      vertex -10.75 42 21.5
    endloop
  endfacet
  facet normal 0 1 0
    outer loop
      vertex 0 100 20
      vertex 0 100 0
      vertex -1.34549 100 20
    endloop
  endfacet
  facet normal 0 1 0
    outer loop
      vertex 0 100 0
      vertex -1.34549 100 0
      vertex -1.34549 100 20
    endloop
  endfacet
  facet normal 0 0 1
    outer loop
      vertex -97.9515 97.9515 20
      vertex -25 25 20
      vertex -47.8795 50.7079 20
    endloop
  endfacet
  facet normal 0 0 1
    outer loop
      vertex -25 25 20
      vertex -22.1716 25 20
      vertex -47.8795 50.7079 20
    endloop
  endfacet
  facet normal 0 0 1
    outer loop
      vertex -2 25 20
      vertex 0 25 20
      vertex -2 42 20
    endloop
  endfacet
  facet normal 0 0 1
    outer loop
      vertex 0 25 20
      vertex 0 100 20
      vertex -2 42 20
    endloop
  endfacet
  facet normal 0 0 1
    outer loop
      vertex -2 42 20
      vertex 0 100 20
      vertex -2 96 20
    endloop
  endfacet
  facet normal 0 0 1
    outer loop
      vertex -2 96 20
      vertex 0 100 20
      vertex -2.29366 96.2937 20
    endloop
  endfacet
  facet normal 0 0 1
    outer loop
      vertex 0 100 20
      vertex -1.34549 100 20
      vertex -2.29366 96.2937 20
    endloop
  endfacet
  facet normal 0 0 1
    outer loop
      vertex -2.29366 96.2937 20
      vertex -1.34549 100 20
      vertex -47.8795 50.7079 20
    endloop
  endfacet
  facet normal 0 0 1
    outer loop
      vertex -1.34549 100 20
      vertex -49.2929 52.1213 20
      vertex -47.8795 50.7079 20
    endloop
  endfacet
  facet normal 0 0 1
    outer loop
      vertex -47.8795 50.7079 20
      vertex -49.2929 52.1213 20
      vertex -97.9515 97.9515 20
    endloop
  endfacet
  facet normal 0 0 1
    outer loop
      vertex -93.1933 96.0281 20
      vertex -97.358 99.9726 20
      vertex -97.4819 99.9386 20
    endloop
  endfacet
  facet normal 0 0 1
    outer loop
      vertex -97.4819 99.9386 20
      vertex -97.6014 99.8916 20
      vertex -93.1933 96.0281 20
    endloop
  endfacet
  facet normal 0 0 1
    outer loop
      vertex -97.6014 99.8916 20
      vertex -97.7153 99.832 20
      vertex -93.1933 96.0281 20
    endloop
  endfacet
  facet normal 0 0 1
    outer loop
      vertex -93.1933 96.0281 20
      vertex -97.7153 99.832 20
      vertex -97.8221 99.7607 20
    endloop
  endfacet
  facet normal 0 0 1
    outer loop
      vertex -98.0887 99.4844 20
      vertex -98.1562 99.3751 20
      vertex -93.1933 96.0281 20
    endloop
  endfacet
  facet normal 0 0 1
    outer loop
      vertex -98.1562 99.3751 20
      vertex -98.2116 99.2592 20
      vertex -93.1933 96.0281 20
    endloop
  endfacet
  facet normal 0 0 1
    outer loop
      vertex -98.2116 99.2592 20
      vertex -98.2543 99.1381 20
      vertex -93.1933 96.0281 20
    endloop
  endfacet
  facet normal 0 0 1
    outer loop
      vertex -98.2543 99.1381 20
      vertex -98.2839 99.0131 20
      vertex -93.1933 96.0281 20
    endloop
  endfacet
  facet normal 0 0 1
    outer loop
      vertex -93.1933 96.0281 20
      vertex -98.2839 99.0131 20
      vertex -98.2999 98.8856 20
    endloop
  endfacet
  facet normal 0 0 1
    outer loop
      vertex -97.358 99.9726 20
      vertex -93.1933 96.0281 20
      vertex -97.2312 99.9931 20
    endloop
  endfacet
  facet normal 0 0 1
    outer loop
      vertex -93.1933 96.0281 20
      vertex -93.3209 96.2125 20
      vertex -97.2312 99.9931 20
    endloop
  endfacet
  facet normal 0 0 1
    outer loop
      vertex -97.2312 99.9931 20
      vertex -93.3209 96.2125 20
      vertex -97.1029 100 20
    endloop
  endfacet
  facet normal 0 0 1
    outer loop
      vertex -97.8221 99.7607 20
      vertex -97.9206 99.6783 20
      vertex -93.1933 96.0281 20
    endloop
  endfacet
  facet normal 0 0 1
    outer loop
      vertex -97.9206 99.6783 20
      vertex -98.0098 99.5858 20
      vertex -93.1933 96.0281 20
    endloop
  endfacet
  facet normal 0 0 1
    outer loop
      vertex -93.1933 96.0281 20
      vertex -98.0098 99.5858 20
      vertex -98.0887 99.4844 20
    endloop
  endfacet
  facet normal 0 0 1
    outer loop
      vertex -98.2999 98.8856 20
      vertex -98.3022 98.7572 20
      vertex -93.1933 96.0281 20
    endloop
  endfacet
  facet normal 0 0 1
    outer loop
      vertex -98.3022 98.7572 20
      vertex -98.2907 98.6292 20
      vertex -93.1933 96.0281 20
    endloop
  endfacet
  facet normal 0 0 1
    outer loop
      vertex -93.1933 96.0281 20
      vertex -98.2907 98.6292 20
      vertex -98.2657 98.5032 20
    endloop
  endfacet
  facet normal 0 0 1
    outer loop
      vertex -49.2929 52.1213 20
      vertex -93.123 95.9515 20
      vertex -97.9515 97.9515 20
    endloop
  endfacet
  facet normal 0 0 1
    outer loop
      vertex -93.123 95.9515 20
      vertex -93.1933 96.0281 20
      vertex -97.9515 97.9515 20
    endloop
  endfacet
  facet normal 0 0 1
    outer loop
      vertex -97.9515 97.9515 20
      vertex -93.1933 96.0281 20
      vertex -98.0373 98.047 20
    endloop
  endfacet
  facet normal 0 0 1
    outer loop
      vertex -93.1933 96.0281 20
      vertex -98.1124 98.1512 20
      vertex -98.0373 98.047 20
    endloop
  endfacet
  facet normal 0 0 1
    outer loop
      vertex -98.2657 98.5032 20
      vertex -98.2273 98.3806 20
      vertex -93.1933 96.0281 20
    endloop
  endfacet
  facet normal 0 0 1
    outer loop
      vertex -98.2273 98.3806 20
      vertex -98.176 98.2629 20
      vertex -93.1933 96.0281 20
    endloop
  endfacet
  facet normal 0 0 1
    outer loop
      vertex -93.1933 96.0281 20
      vertex -98.176 98.2629 20
      vertex -98.1124 98.1512 20
    endloop
  endfacet
  facet normal -1 0 0
    outer loop
      vertex -2 96 0
      vertex -2 42 0
      vertex -2 96 20
    endloop
  endfacet
  facet normal -1 0 0
    outer loop
      vertex -2 42 0
      vertex -2 42 20
      vertex -2 96 20
    endloop
  endfacet
  facet normal 0 0 1
    outer loop
      vertex -3 25 30
      vertex -2 25 30
      vertex -3 29.25 30
    endloop
  endfacet
  facet normal 0 0 1
    outer loop
      vertex -2 25 30
      vertex -2 29.25 30
      vertex -3 29.25 30
    endloop
  endfacet
  facet normal 0.707107 0.707107 0
    outer loop
      vertex -22.1716 25 20
      vertex -22.1716 25 0
      vertex -47.8795 50.7079 20
    endloop
  endfacet
  facet normal 0.707107 0.707107 0
    outer loop
      vertex -22.1716 25 0
      vertex -47.8795 50.7079 0
      vertex -47.8795 50.7079 20
    endloop
  endfacet
  facet normal 0 0 -1
    outer loop
      vertex -13 25 0
      vertex -14 25 0
      vertex -13 41 0
    endloop
  endfacet
  facet normal 0 0 -1
    outer loop
      vertex -14 25 0
      vertex -14 42 0
      vertex -13 41 0
    endloop
  endfacet
  facet normal 0 0 -1
    outer loop
      vertex -13 41 0
      vertex -14 42 0
      vertex -3 41 0
    endloop
  endfacet
  facet normal 0 0 -1
    outer loop
      vertex -14 42 0
      vertex -2 42 0
      vertex -3 41 0
    endloop
  endfacet
  facet normal 0 0 -1
    outer loop
      vertex -47.8795 50.7079 0
      vertex -49.2929 52.1213 0
      vertex -2.29366 96.2937 0
    endloop
  endfacet
  facet normal 0 0 -1
    outer loop
      vertex -49.2929 52.1213 0
      vertex -1.34549 100 0
      vertex -2.29366 96.2937 0
    endloop
  endfacet
  facet normal 0 0 -1
    outer loop
      vertex -2.29366 96.2937 0
      vertex -1.34549 100 0
      vertex -2 96 0
    endloop
  endfacet
  facet normal 0 0 -1
    outer loop
      vertex -1.34549 100 0
      vertex 0 100 0
      vertex -2 96 0
    endloop
  endfacet
  facet normal 0 0 -1
    outer loop
      vertex -2 96 0
      vertex 0 100 0
      vertex -2 42 0
    endloop
  endfacet
  facet normal 0 0 -1
    outer loop
      vertex 0 100 0
      vertex 0 25 0
      vertex -2 42 0
    endloop
  endfacet
  facet normal 0 0 -1
    outer loop
      vertex -2 42 0
      vertex 0 25 0
      vertex -3 41 0
    endloop
  endfacet
  facet normal 0 0 -1
    outer loop
      vertex 0 25 0
      vertex -3 25 0
      vertex -3 41 0
    endloop
  endfacet
  facet normal 0 0 -1
    outer loop
      vertex -97.9515 97.9515 0
      vertex -93.1933 96.0281 0
      vertex -93.123 95.9515 0
    endloop
  endfacet
  facet normal 0 0 -1
    outer loop
      vertex -22.1716 25 0
      vertex -25 25 0
      vertex -47.8795 50.7079 0
    endloop
  endfacet
  facet normal 0 0 -1
    outer loop
      vertex -25 25 0
      vertex -97.9515 97.9515 0
      vertex -47.8795 50.7079 0
    endloop
  endfacet
  facet normal 0 0 -1
    outer loop
      vertex -47.8795 50.7079 0
      vertex -97.9515 97.9515 0
      vertex -49.2929 52.1213 0
    endloop
  endfacet
  facet normal 0 0 -1
    outer loop
      vertex -97.9515 97.9515 0
      vertex -93.123 95.9515 0
      vertex -49.2929 52.1213 0
    endloop
  endfacet
  facet normal 0 0 -1
    outer loop
      vertex -98.2839 99.0131 0
      vertex -98.2543 99.1381 0
      vertex -93.1933 96.0281 0
    endloop
  endfacet
  facet normal 0 0 -1
    outer loop
      vertex -98.2543 99.1381 0
      vertex -98.2116 99.2592 0
      vertex -93.1933 96.0281 0
    endloop
  endfacet
  facet normal 0 0 -1
    outer loop
      vertex -98.2116 99.2592 0
      vertex -98.1562 99.3751 0
      vertex -93.1933 96.0281 0
    endloop
  endfacet
  facet normal 0 0 -1
    outer loop
      vertex -98.1562 99.3751 0
      vertex -98.0887 99.4844 0
      vertex -93.1933 96.0281 0
    endloop
  endfacet
  facet normal 0 0 -1
    outer loop
      vertex -93.1933 96.0281 0
      vertex -98.0887 99.4844 0
      vertex -98.0098 99.5858 0
    endloop
  endfacet
  facet normal 0 0 -1
    outer loop
      vertex -97.7153 99.832 0
      vertex -97.6014 99.8916 0
      vertex -93.1933 96.0281 0
    endloop
  endfacet
  facet normal 0 0 -1
    outer loop
      vertex -97.6014 99.8916 0
      vertex -97.4819 99.9386 0
      vertex -93.1933 96.0281 0
    endloop
  endfacet
  facet normal 0 0 -1
    outer loop
      vertex -98.0098 99.5858 0
      vertex -97.9206 99.6783 0
      vertex -93.1933 96.0281 0
    endloop
  endfacet
  facet normal 0 0 -1
    outer loop
      vertex -97.9206 99.6783 0
      vertex -97.8221 99.7607 0
      vertex -93.1933 96.0281 0
    endloop
  endfacet
  facet normal 0 0 -1
    outer loop
      vertex -93.1933 96.0281 0
      vertex -97.8221 99.7607 0
      vertex -97.7153 99.832 0
    endloop
  endfacet
  facet normal 0 0 -1
    outer loop
      vertex -97.4819 99.9386 0
      vertex -97.358 99.9726 0
      vertex -93.1933 96.0281 0
    endloop
  endfacet
  facet normal 0 0 -1
    outer loop
      vertex -97.358 99.9726 0
      vertex -97.2312 99.9931 0
      vertex -93.1933 96.0281 0
    endloop
  endfacet
  facet normal 0 0 -1
    outer loop
      vertex -93.1933 96.0281 0
      vertex -97.2312 99.9931 0
      vertex -93.3209 96.2125 0
    endloop
  endfacet
  facet normal 0 0 -1
    outer loop
      vertex -97.2312 99.9931 0
      vertex -97.1029 100 0
      vertex -93.3209 96.2125 0
    endloop
  endfacet
  facet normal 0 0 -1
    outer loop
      vertex -97.9515 97.9515 0
      vertex -98.0373 98.047 0
      vertex -93.1933 96.0281 0
    endloop
  endfacet
  facet normal 0 0 -1
    outer loop
      vertex -98.0373 98.047 0
      vertex -98.1124 98.1512 0
      vertex -93.1933 96.0281 0
    endloop
  endfacet
  facet normal 0 0 -1
    outer loop
      vertex -93.1933 96.0281 0
      vertex -98.1124 98.1512 0
      vertex -98.176 98.2629 0
    endloop
  endfacet
  facet normal 0 0 -1
    outer loop
      vertex -98.2907 98.6292 0
      vertex -98.3022 98.7572 0
      vertex -93.1933 96.0281 0
    endloop
  endfacet
  facet normal 0 0 -1
    outer loop
      vertex -98.3022 98.7572 0
      vertex -98.2999 98.8856 0
      vertex -93.1933 96.0281 0
    endloop
  endfacet
  facet normal 0 0 -1
    outer loop
      vertex -93.1933 96.0281 0
      vertex -98.2999 98.8856 0
      vertex -98.2839 99.0131 0
    endloop
  endfacet
  facet normal 0 0 -1
    outer loop
      vertex -98.176 98.2629 0
      vertex -98.2273 98.3806 0
      vertex -93.1933 96.0281 0
    endloop
  endfacet
  facet normal 0 0 -1
    outer loop
      vertex -98.2273 98.3806 0
      vertex -98.2657 98.5032 0
      vertex -93.1933 96.0281 0
    endloop
  endfacet
  facet normal 0 0 -1
    outer loop
      vertex -93.1933 96.0281 0
      vertex -98.2657 98.5032 0
      vertex -98.2907 98.6292 0
    endloop
  endfacet
  facet normal 1 0 0
    outer loop
      vertex 0 100 0
      vertex 0 100 20
      vertex 0 25 0
    endloop
  endfacet
  facet normal 1 0 0
    outer loop
      vertex 0 100 20
      vertex 0 25 20
      vertex 0 25 0
    endloop
  endfacet
  facet normal 0 0 1
    outer loop
      vertex -3 37.75 30
      vertex -2 37.75 30
      vertex -3 41 30
    endloop
  endfacet
  facet normal 0 0 1
    outer loop
      vertex -2 37.75 30
      vertex -2 42 30
      vertex -3 41 30
    endloop
  endfacet
  facet normal 0 0 1
    outer loop
      vertex -3 41 30
      vertex -2 42 30
      vertex -5.25 41 30
    endloop
  endfacet
  facet normal 0 0 1
    outer loop
      vertex -2 42 30
      vertex -5.25 42 30
      vertex -5.25 41 30
    endloop
  endfacet
  facet normal 0 1 0
    outer loop
      vertex -5.25 42 30
      vertex -2 42 30
      vertex -5.25 42 21.5
    endloop
  endfacet
  facet normal 0 1 0
    outer loop
      vertex -2 42 30
      vertex -2 42 20
      vertex -5.25 42 21.5
    endloop
  endfacet
  facet normal 0 1 0
    outer loop
      vertex -2 42 20
      vertex -2 42 0
      vertex -5.25 42 21.5
    endloop
  endfacet
  facet normal 0 1 0
    outer loop
      vertex -2 42 0
      vertex -14 42 0
      vertex -5.25 42 21.5
    endloop
  endfacet
  facet normal 0 1 0
    outer loop
      vertex -5.25 42 21.5
      vertex -14 42 0
      vertex -10.75 42 21.5
    endloop
  endfacet
  facet normal 0 1 0
    outer loop
      vertex -14 42 0
      vertex -14 42 30
      vertex -10.75 42 21.5
    endloop
  endfacet
  facet normal 0 1 0
    outer loop
      vertex -10.75 42 21.5
      vertex -14 42 30
      vertex -10.75 42 30
    endloop
  endfacet
  facet normal 0 -1 0
    outer loop
      vertex -14 25 30
      vertex -14 25 0
      vertex -13 25 30
    endloop
  endfacet
  facet normal 0 -1 0
    outer loop
      vertex -14 25 0
      vertex -13 25 0
      vertex -13 25 30
    endloop
  endfacet
  facet normal 0 0 1
    outer loop
      vertex -10.75 41 30
      vertex -10.75 42 30
      vertex -13 41 30
    endloop
  endfacet
  facet normal 0 0 1
    outer loop
      vertex -10.75 42 30
      vertex -14 42 30
      vertex -13 41 30
    endloop
  endfacet
  facet normal 0 0 1
    outer loop
      vertex -13 41 30
      vertex -14 42 30
      vertex -13 37.75 30
    endloop
  endfacet
  facet normal 0 0 1
    outer loop
      vertex -14 42 30
      vertex -14 37.75 30
      vertex -13 37.75 30
    endloop
  endfacet
  facet normal 0 -1 0
    outer loop
      vertex -2 25 30
      vertex -3 25 30
      vertex -2 25 20
    endloop
  endfacet
  facet normal 0 -1 0
    outer loop
      vertex -3 25 30
      vertex -3 25 0
      vertex -2 25 20
    endloop
  endfacet
  facet normal 0 -1 0
    outer loop
      vertex -2 25 20
      vertex -3 25 0
      vertex 0 25 20
    endloop
  endfacet
  facet normal 0 -1 0
    outer loop
      vertex -3 25 0
      vertex 0 25 0
      vertex 0 25 20
    endloop
  endfacet
  facet normal -1 0 0
    outer loop
      vertex -3 25 30
      vertex -3 29.25 30
      vertex -3 29.25 22.5
    endloop
  endfacet
  facet normal -1 0 0
    outer loop
      vertex -3 37.75 30
      vertex -3 41 30
      vertex -3 37.75 22.5
    endloop
  endfacet
  facet normal -1 0 0
    outer loop
      vertex -3 41 30
      vertex -3 41 0
      vertex -3 37.75 22.5
    endloop
  endfacet
  facet normal -1 0 0
    outer loop
      vertex -3 37.75 22.5
      vertex -3 41 0
      vertex -3 29.25 22.5
    endloop
  endfacet
  facet normal -1 0 0
    outer loop
      vertex -3 41 0
      vertex -3 25 0
      vertex -3 29.25 22.5
    endloop
  endfacet
  facet normal -1 0 0
    outer loop
      vertex -3 29.25 22.5
      vertex -3 25 0
      vertex -3 25 30
    endloop
  endfacet
  facet normal 0 0 1
    outer loop
      vertex -14 25 30
      vertex -13 25 30
      vertex -14 29.25 30
    endloop
  endfacet
  facet normal 0 0 1
    outer loop
      vertex -13 25 30
      vertex -13 29.25 30
      vertex -14 29.25 30
    endloop
  endfacet
  facet normal -0.707107 -0.707107 0
    outer loop
      vertex -97.9515 97.9515 0
      vertex -25 25 0
      vertex -97.9515 97.9515 20
    endloop
  endfacet
  facet normal -0.707107 -0.707107 0
    outer loop
      vertex -25 25 0
      vertex -25 25 20
      vertex -97.9515 97.9515 20
    endloop
  endfacet
  facet normal 1 0 0
    outer loop
      vertex -13 41 30
      vertex -13 37.75 30
      vertex -13 37.75 22.5
    endloop
  endfacet
  facet normal 1 0 0
    outer loop
      vertex -13 29.25 30
      vertex -13 25 30
      vertex -13 29.25 22.5
    endloop
  endfacet
  facet normal 1 0 0
    outer loop
      vertex -13 25 30
      vertex -13 25 0
      vertex -13 29.25 22.5
    endloop
  endfacet
  facet normal 1 0 0
    outer loop
      vertex -13 29.25 22.5
      vertex -13 25 0
      vertex -13 37.75 22.5
    endloop
  endfacet
  facet normal 1 0 0
    outer loop
      vertex -13 25 0
      vertex -13 41 0
      vertex -13 37.75 22.5
    endloop
  endfacet
  facet normal 1 0 0
    outer loop
      vertex -13 37.75 22.5
      vertex -13 41 0
      vertex -13 41 30
    endloop
  endfacet
  facet normal 0.707107 0.707107 0
    outer loop
      vertex -49.2929 52.1213 0
      vertex -93.123 95.9515 0
      vertex -49.2929 52.1213 20
    endloop
  endfacet
  facet normal 0.707107 0.707107 0
    outer loop
      vertex -93.123 95.9515 0
      vertex -93.123 95.9515 20
      vertex -49.2929 52.1213 20
    endloop
  endfacet
  facet normal 0 -1 0
    outer loop
      vertex -25 25 0
      vertex -22.1716 25 0
      vertex -25 25 20
    endloop
  endfacet
  facet normal 0 -1 0
    outer loop
      vertex -22.1716 25 0
      vertex -22.1716 25 20
      vertex -25 25 20
    endloop
  endfacet
  facet normal -1 0 0
    outer loop
      vertex -14 25 30
      vertex -14 29.25 30
      vertex -14 29.25 22.5
    endloop
  endfacet
  facet normal -1 0 0
    outer loop
      vertex -14 37.75 30
      vertex -14 42 30
      vertex -14 37.75 22.5
    endloop
  endfacet
  facet normal -1 0 0
    outer loop
      vertex -14 42 30
      vertex -14 42 0
      vertex -14 37.75 22.5
    endloop
  endfacet
  facet normal -1 0 0
    outer loop
      vertex -14 37.75 22.5
      vertex -14 42 0
      vertex -14 29.25 22.5
    endloop
  endfacet
  facet normal -1 0 0
    outer loop
      vertex -14 42 0
      vertex -14 25 0
      vertex -14 29.25 22.5
    endloop
  endfacet
  facet normal -1 0 0
    outer loop
      vertex -14 29.25 22.5
      vertex -14 25 0
      vertex -14 25 30
    endloop
  endfacet
  facet normal 1 0 0
    outer loop
      vertex -2 29.25 30
      vertex -2 25 30
      vertex -2 29.25 22.5
    endloop
  endfacet
  facet normal 1 0 0
    outer loop
      vertex -2 25 30
      vertex -2 25 20
      vertex -2 29.25 22.5
    endloop
  endfacet
  facet normal 1 0 0
    outer loop
      vertex -2 29.25 22.5
      vertex -2 25 20
      vertex -2 37.75 22.5
    endloop
  endfacet
  facet normal 1 0 0
    outer loop
      vertex -2 25 20
      vertex -2 42 20
      vertex -2 37.75 22.5
    endloop
  endfacet
  facet normal 1 0 0
    outer loop
      vertex -2 37.75 22.5
      vertex -2 42 20
      vertex -2 37.75 30
    endloop
  endfacet
  facet normal 1 0 0
    outer loop
      vertex -2 42 20
      vertex -2 42 30
      vertex -2 37.75 30
    endloop
  endfacet
  facet normal 0 -1 0
    outer loop
      vertex -3 41 0
      vertex -3 41 30
      vertex -5.25 41 21.5
    endloop
  endfacet
  facet normal 0 -1 0
    outer loop
      vertex -3 41 30
      vertex -5.25 41 30
      vertex -5.25 41 21.5
    endloop
  endfacet
  facet normal 0 -1 0
    outer loop
      vertex -10.75 41 30
      vertex -13 41 30
      vertex -10.75 41 21.5
    endloop
  endfacet
  facet normal 0 -1 0
    outer loop
      vertex -13 41 30
      vertex -13 41 0
      vertex -10.75 41 21.5
    endloop
  endfacet
  facet normal 0 -1 0
    outer loop
      vertex -7.00677 41 16.6734
      vertex -6.93979 41 16.5621
      vertex -5.25 41 21.5
    endloop
  endfacet
  facet normal 0 -1 0
    outer loop
      vertex -8.72621 41 16.9553
      vertex -8.61866 41 17.0282
      vertex -5.25 41 21.5
    endloop
  endfacet
  facet normal 0 -1 0
    outer loop
      vertex -8.61866 41 17.0282
      vertex -8.50387 41 17.0891
      vertex -5.25 41 21.5
    endloop
  endfacet
  facet normal 0 -1 0
    outer loop
      vertex -8.50387 41 17.0891
      vertex -8.38316 41 17.1372
      vertex -5.25 41 21.5
    endloop
  endfacet
  facet normal 0 -1 0
    outer loop
      vertex -8.38316 41 17.1372
      vertex -8.25796 41 17.1719
      vertex -5.25 41 21.5
    endloop
  endfacet
  facet normal 0 -1 0
    outer loop
      vertex -5.25 41 21.5
      vertex -8.25796 41 17.1719
      vertex -8.12974 41 17.193
    endloop
  endfacet
  facet normal 0 -1 0
    outer loop
      vertex -8.12974 41 17.193
      vertex -8 41 17.2
      vertex -5.25 41 21.5
    endloop
  endfacet
  facet normal 0 -1 0
    outer loop
      vertex -8 41 17.2
      vertex -7.87026 41 17.193
      vertex -5.25 41 21.5
    endloop
  endfacet
  facet normal 0 -1 0
    outer loop
      vertex -5.25 41 21.5
      vertex -7.87026 41 17.193
      vertex -7.74204 41 17.1719
    endloop
  endfacet
  facet normal 0 -1 0
    outer loop
      vertex -7.17476 41 15.1288
      vertex -7.27379 41 15.0447
      vertex -3 41 0
    endloop
  endfacet
  facet normal 0 -1 0
    outer loop
      vertex -13 41 0
      vertex -3 41 0
      vertex -8 41 14.8
    endloop
  endfacet
  facet normal 0 -1 0
    outer loop
      vertex -9.18419 41 16.1941
      vertex -9.15626 41 16.321
      vertex -10.75 41 21.5
    endloop
  endfacet
  facet normal 0 -1 0
    outer loop
      vertex -10.75 41 21.5
      vertex -8.99323 41 16.6734
      vertex -8.91459 41 16.7769
    endloop
  endfacet
  facet normal 0 -1 0
    outer loop
      vertex -10.75 41 21.5
      vertex -8.91459 41 16.7769
      vertex -5.25 41 21.5
    endloop
  endfacet
  facet normal 0 -1 0
    outer loop
      vertex -8.91459 41 16.7769
      vertex -8.82524 41 16.8712
      vertex -5.25 41 21.5
    endloop
  endfacet
  facet normal 0 -1 0
    outer loop
      vertex -5.25 41 21.5
      vertex -8.82524 41 16.8712
      vertex -8.72621 41 16.9553
    endloop
  endfacet
  facet normal 0 -1 0
    outer loop
      vertex -7.00677 41 16.6734
      vertex -5.25 41 21.5
      vertex -7.08541 41 16.7769
    endloop
  endfacet
  facet normal 0 -1 0
    outer loop
      vertex -8 41 14.8
      vertex -8.12974 41 14.807
      vertex -13 41 0
    endloop
  endfacet
  facet normal 0 -1 0
    outer loop
      vertex -8.12974 41 14.807
      vertex -8.25796 41 14.8281
      vertex -13 41 0
    endloop
  endfacet
  facet normal 0 -1 0
    outer loop
      vertex -13 41 0
      vertex -8.25796 41 14.8281
      vertex -8.38316 41 14.8628
    endloop
  endfacet
  facet normal 0 -1 0
    outer loop
      vertex -8.38316 41 14.8628
      vertex -8.50387 41 14.9109
      vertex -13 41 0
    endloop
  endfacet
  facet normal 0 -1 0
    outer loop
      vertex -8.50387 41 14.9109
      vertex -8.61866 41 14.9718
      vertex -13 41 0
    endloop
  endfacet
  facet normal 0 -1 0
    outer loop
      vertex -13 41 0
      vertex -8.61866 41 14.9718
      vertex -8.72621 41 15.0447
    endloop
  endfacet
  facet normal 0 -1 0
    outer loop
      vertex -8.72621 41 15.0447
      vertex -8.82524 41 15.1288
      vertex -13 41 0
    endloop
  endfacet
  facet normal 0 -1 0
    outer loop
      vertex -8.82524 41 15.1288
      vertex -8.91459 41 15.2231
      vertex -13 41 0
    endloop
  endfacet
  facet normal 0 -1 0
    outer loop
      vertex -13 41 0
      vertex -8.91459 41 15.2231
      vertex -8.99323 41 15.3266
    endloop
  endfacet
  facet normal 0 -1 0
    outer loop
      vertex -8.99323 41 15.3266
      vertex -9.06021 41 15.4379
      vertex -13 41 0
    endloop
  endfacet
  facet normal 0 -1 0
    outer loop
      vertex -9.06021 41 15.4379
      vertex -9.11477 41 15.5558
      vertex -13 41 0
    endloop
  endfacet
  facet normal 0 -1 0
    outer loop
      vertex -13 41 0
      vertex -9.11477 41 15.5558
      vertex -9.15626 41 15.679
    endloop
  endfacet
  facet normal 0 -1 0
    outer loop
      vertex -9.15626 41 16.321
      vertex -9.11477 41 16.4442
      vertex -10.75 41 21.5
    endloop
  endfacet
  facet normal 0 -1 0
    outer loop
      vertex -9.11477 41 16.4442
      vertex -9.06021 41 16.5621
      vertex -10.75 41 21.5
    endloop
  endfacet
  facet normal 0 -1 0
    outer loop
      vertex -10.75 41 21.5
      vertex -9.06021 41 16.5621
      vertex -8.99323 41 16.6734
    endloop
  endfacet
  facet normal 0 -1 0
    outer loop
      vertex -7.74204 41 17.1719
      vertex -7.61684 41 17.1372
      vertex -5.25 41 21.5
    endloop
  endfacet
  facet normal 0 -1 0
    outer loop
      vertex -7.61684 41 17.1372
      vertex -7.49613 41 17.0891
      vertex -5.25 41 21.5
    endloop
  endfacet
  facet normal 0 -1 0
    outer loop
      vertex -5.25 41 21.5
      vertex -7.49613 41 17.0891
      vertex -7.38134 41 17.0282
    endloop
  endfacet
  facet normal 0 -1 0
    outer loop
      vertex -7.38134 41 17.0282
      vertex -7.27379 41 16.9553
      vertex -5.25 41 21.5
    endloop
  endfacet
  facet normal 0 -1 0
    outer loop
      vertex -7.27379 41 16.9553
      vertex -7.17476 41 16.8712
      vertex -5.25 41 21.5
    endloop
  endfacet
  facet normal 0 -1 0
    outer loop
      vertex -5.25 41 21.5
      vertex -7.17476 41 16.8712
      vertex -7.08541 41 16.7769
    endloop
  endfacet
  facet normal 0 -1 0
    outer loop
      vertex -7.27379 41 15.0447
      vertex -7.38134 41 14.9718
      vertex -3 41 0
    endloop
  endfacet
  facet normal 0 -1 0
    outer loop
      vertex -7.38134 41 14.9718
      vertex -7.49613 41 14.9109
      vertex -3 41 0
    endloop
  endfacet
  facet normal 0 -1 0
    outer loop
      vertex -3 41 0
      vertex -7.49613 41 14.9109
      vertex -7.61684 41 14.8628
    endloop
  endfacet
  facet normal 0 -1 0
    outer loop
      vertex -7.61684 41 14.8628
      vertex -7.74204 41 14.8281
      vertex -3 41 0
    endloop
  endfacet
  facet normal 0 -1 0
    outer loop
      vertex -7.74204 41 14.8281
      vertex -7.87026 41 14.807
      vertex -3 41 0
    endloop
  endfacet
  facet normal 0 -1 0
    outer loop
      vertex -3 41 0
      vertex -7.87026 41 14.807
      vertex -8 41 14.8
    endloop
  endfacet
  facet normal 0 -1 0
    outer loop
      vertex -9.15626 41 15.679
      vertex -9.18419 41 15.8059
      vertex -13 41 0
    endloop
  endfacet
  facet normal 0 -1 0
    outer loop
      vertex -9.18419 41 15.8059
      vertex -9.19824 41 15.935
      vertex -13 41 0
    endloop
  endfacet
  facet normal 0 -1 0
    outer loop
      vertex -13 41 0
      vertex -9.19824 41 15.935
      vertex -10.75 41 21.5
    endloop
  endfacet
  facet normal 0 -1 0
    outer loop
      vertex -9.19824 41 15.935
      vertex -9.19824 41 16.065
      vertex -10.75 41 21.5
    endloop
  endfacet
  facet normal 0 -1 0
    outer loop
      vertex -10.75 41 21.5
      vertex -9.19824 41 16.065
      vertex -9.18419 41 16.1941
    endloop
  endfacet
  facet normal 0 -1 0
    outer loop
      vertex -6.93979 41 16.5621
      vertex -6.88523 41 16.4442
      vertex -5.25 41 21.5
    endloop
  endfacet
  facet normal 0 -1 0
    outer loop
      vertex -6.88523 41 16.4442
      vertex -6.84374 41 16.321
      vertex -5.25 41 21.5
    endloop
  endfacet
  facet normal 0 -1 0
    outer loop
      vertex -5.25 41 21.5
      vertex -6.84374 41 16.321
      vertex -6.81581 41 16.1941
    endloop
  endfacet
  facet normal 0 -1 0
    outer loop
      vertex -6.81581 41 16.1941
      vertex -6.80176 41 16.065
      vertex -5.25 41 21.5
    endloop
  endfacet
  facet normal 0 -1 0
    outer loop
      vertex -6.80176 41 16.065
      vertex -6.80176 41 15.935
      vertex -5.25 41 21.5
    endloop
  endfacet
  facet normal 0 -1 0
    outer loop
      vertex -5.25 41 21.5
      vertex -6.80176 41 15.935
      vertex -3 41 0
    endloop
  endfacet
  facet normal 0 -1 0
    outer loop
      vertex -6.80176 41 15.935
      vertex -6.81581 41 15.8059
      vertex -3 41 0
    endloop
  endfacet
  facet normal 0 -1 0
    outer loop
      vertex -6.81581 41 15.8059
      vertex -6.84374 41 15.679
      vertex -3 41 0
    endloop
  endfacet
  facet normal 0 -1 0
    outer loop
      vertex -6.84374 41 15.679
      vertex -6.88523 41 15.5558
      vertex -3 41 0
    endloop
  endfacet
  facet normal 0 -1 0
    outer loop
      vertex -3 41 0
      vertex -6.88523 41 15.5558
      vertex -6.93979 41 15.4379
    endloop
  endfacet
  facet normal 0 -1 0
    outer loop
      vertex -6.93979 41 15.4379
      vertex -7.00677 41 15.3266
      vertex -3 41 0
    endloop
  endfacet
  facet normal 0 -1 0
    outer loop
      vertex -7.00677 41 15.3266
      vertex -7.08541 41 15.2231
      vertex -3 41 0
    endloop
  endfacet
  facet normal 0 -1 0
    outer loop
      vertex -3 41 0
      vertex -7.08541 41 15.2231
      vertex -7.17476 41 15.1288
    endloop
  endfacet
  facet normal 0.737035 0.675854 0
    outer loop
      vertex -93.123 95.9515 20
      vertex -93.123 95.9515 0
      vertex -93.1933 96.0281 20
    endloop
  endfacet
  facet normal 0.737035 0.675854 0
    outer loop
      vertex -93.123 95.9515 0
      vertex -93.1933 96.0281 0
      vertex -93.1933 96.0281 20
    endloop
  endfacet
  facet normal 0.822417 0.568885 0
    outer loop
      vertex -93.1933 96.0281 20
      vertex -93.1933 96.0281 0
      vertex -93.3209 96.2125 20
    endloop
  endfacet
  facet normal 0.822417 0.568885 0
    outer loop
      vertex -93.1933 96.0281 0
      vertex -93.3209 96.2125 0
      vertex -93.3209 96.2125 20
    endloop
  endfacet
  facet normal -0.0535329 0.998566 0
    outer loop
      vertex -97.1029 100 20
      vertex -97.1029 100 0
      vertex -97.2312 99.9931 0
    endloop
  endfacet
  facet normal -0.0535329 0.998566 0
    outer loop
      vertex -97.1029 100 20
      vertex -97.2312 99.9931 0
      vertex -97.2312 99.9931 20
    endloop
  endfacet
  facet normal -0.159958 0.987124 0
    outer loop
      vertex -97.2312 99.9931 0
      vertex -97.358 99.9726 0
      vertex -97.2312 99.9931 20
    endloop
  endfacet
  facet normal -0.159958 0.987124 0
    outer loop
      vertex -97.2312 99.9931 20
      vertex -97.358 99.9726 0
      vertex -97.358 99.9726 20
    endloop
  endfacet
  facet normal -0.26454 0.964375 0
    outer loop
      vertex -97.358 99.9726 0
      vertex -97.4819 99.9386 0
      vertex -97.358 99.9726 20
    endloop
  endfacet
  facet normal -0.26454 0.964375 0
    outer loop
      vertex -97.358 99.9726 20
      vertex -97.4819 99.9386 0
      vertex -97.4819 99.9386 20
    endloop
  endfacet
  facet normal -0.366155 0.930554 0
    outer loop
      vertex -97.4819 99.9386 0
      vertex -97.6014 99.8916 0
      vertex -97.4819 99.9386 20
    endloop
  endfacet
  facet normal -0.366155 0.930554 0
    outer loop
      vertex -97.4819 99.9386 20
      vertex -97.6014 99.8916 0
      vertex -97.6014 99.8916 20
    endloop
  endfacet
  facet normal -0.463495 0.886099 0
    outer loop
      vertex -97.6014 99.8916 0
      vertex -97.7153 99.832 0
      vertex -97.6014 99.8916 20
    endloop
  endfacet
  facet normal -0.463495 0.886099 0
    outer loop
      vertex -97.6014 99.8916 20
      vertex -97.7153 99.832 0
      vertex -97.7153 99.832 20
    endloop
  endfacet
  facet normal -0.55557 0.83147 0
    outer loop
      vertex -97.7153 99.832 0
      vertex -97.8221 99.7607 0
      vertex -97.7153 99.832 20
    endloop
  endfacet
  facet normal -0.55557 0.83147 0
    outer loop
      vertex -97.7153 99.832 20
      vertex -97.8221 99.7607 0
      vertex -97.8221 99.7607 20
    endloop
  endfacet
  facet normal -0.641279 0.767308 0
    outer loop
      vertex -97.8221 99.7607 0
      vertex -97.9206 99.6783 0
      vertex -97.8221 99.7607 20
    endloop
  endfacet
  facet normal -0.641279 0.767308 0
    outer loop
      vertex -97.8221 99.7607 20
      vertex -97.9206 99.6783 0
      vertex -97.9206 99.6783 20
    endloop
  endfacet
  facet normal -0.719638 0.694349 0
    outer loop
      vertex -97.9206 99.6783 0
      vertex -98.0098 99.5858 0
      vertex -97.9206 99.6783 20
    endloop
  endfacet
  facet normal -0.719638 0.694349 0
    outer loop
      vertex -97.9206 99.6783 20
      vertex -98.0098 99.5858 0
      vertex -98.0098 99.5858 20
    endloop
  endfacet
  facet normal -0.789696 0.613499 0
    outer loop
      vertex -98.0098 99.5858 0
      vertex -98.0887 99.4844 0
      vertex -98.0098 99.5858 20
    endloop
  endfacet
  facet normal -0.789696 0.613499 0
    outer loop
      vertex -98.0098 99.5858 20
      vertex -98.0887 99.4844 0
      vertex -98.0887 99.4844 20
    endloop
  endfacet
  facet normal -0.850763 0.52555 0
    outer loop
      vertex -98.0887 99.4844 0
      vertex -98.1562 99.3751 0
      vertex -98.0887 99.4844 20
    endloop
  endfacet
  facet normal -0.850763 0.52555 0
    outer loop
      vertex -98.0887 99.4844 20
      vertex -98.1562 99.3751 0
      vertex -98.1562 99.3751 20
    endloop
  endfacet
  facet normal -0.902075 0.431579 0
    outer loop
      vertex -98.1562 99.3751 0
      vertex -98.2116 99.2592 0
      vertex -98.1562 99.3751 20
    endloop
  endfacet
  facet normal -0.902075 0.431579 0
    outer loop
      vertex -98.1562 99.3751 20
      vertex -98.2116 99.2592 0
      vertex -98.2116 99.2592 20
    endloop
  endfacet
  facet normal -0.943035 0.332693 0
    outer loop
      vertex -98.2116 99.2592 0
      vertex -98.2543 99.1381 0
      vertex -98.2116 99.2592 20
    endloop
  endfacet
  facet normal -0.943035 0.332693 0
    outer loop
      vertex -98.2116 99.2592 20
      vertex -98.2543 99.1381 0
      vertex -98.2543 99.1381 20
    endloop
  endfacet
  facet normal -0.9732 0.229961 0
    outer loop
      vertex -98.2543 99.1381 0
      vertex -98.2839 99.0131 0
      vertex -98.2543 99.1381 20
    endloop
  endfacet
  facet normal -0.9732 0.229961 0
    outer loop
      vertex -98.2543 99.1381 20
      vertex -98.2839 99.0131 0
      vertex -98.2839 99.0131 20
    endloop
  endfacet
  facet normal -0.992208 0.124592 0
    outer loop
      vertex -98.2839 99.0131 0
      vertex -98.2999 98.8856 0
      vertex -98.2839 99.0131 20
    endloop
  endfacet
  facet normal -0.992208 0.124592 0
    outer loop
      vertex -98.2839 99.0131 20
      vertex -98.2999 98.8856 0
      vertex -98.2999 98.8856 20
    endloop
  endfacet
  facet normal -0.99984 0.0178636 0
    outer loop
      vertex -98.2999 98.8856 0
      vertex -98.3022 98.7572 0
      vertex -98.2999 98.8856 20
    endloop
  endfacet
  facet normal -0.99984 0.0178636 0
    outer loop
      vertex -98.2999 98.8856 20
      vertex -98.3022 98.7572 0
      vertex -98.3022 98.7572 20
    endloop
  endfacet
  facet normal -0.996019 -0.0891446 0
    outer loop
      vertex -98.3022 98.7572 0
      vertex -98.2907 98.6292 0
      vertex -98.3022 98.7572 20
    endloop
  endfacet
  facet normal -0.996019 -0.0891446 0
    outer loop
      vertex -98.3022 98.7572 20
      vertex -98.2907 98.6292 0
      vertex -98.2907 98.6292 20
    endloop
  endfacet
  facet normal -0.980792 -0.195056 0
    outer loop
      vertex -98.2907 98.6292 0
      vertex -98.2657 98.5032 0
      vertex -98.2907 98.6292 20
    endloop
  endfacet
  facet normal -0.980792 -0.195056 0
    outer loop
      vertex -98.2907 98.6292 20
      vertex -98.2657 98.5032 0
      vertex -98.2657 98.5032 20
    endloop
  endfacet
  facet normal -0.954313 -0.29881 0
    outer loop
      vertex -98.2657 98.5032 0
      vertex -98.2273 98.3806 0
      vertex -98.2657 98.5032 20
    endloop
  endfacet
  facet normal -0.954313 -0.29881 0
    outer loop
      vertex -98.2657 98.5032 20
      vertex -98.2273 98.3806 0
      vertex -98.2273 98.3806 20
    endloop
  endfacet
  facet normal -0.916901 -0.399114 0
    outer loop
      vertex -98.2273 98.3806 0
      vertex -98.176 98.2629 0
      vertex -98.2273 98.3806 20
    endloop
  endfacet
  facet normal -0.916901 -0.399114 0
    outer loop
      vertex -98.2273 98.3806 20
      vertex -98.176 98.2629 0
      vertex -98.176 98.2629 20
    endloop
  endfacet
  facet normal -0.868985 -0.494839 0
    outer loop
      vertex -98.176 98.2629 0
      vertex -98.1124 98.1512 0
      vertex -98.176 98.2629 20
    endloop
  endfacet
  facet normal -0.868985 -0.494839 0
    outer loop
      vertex -98.176 98.2629 20
      vertex -98.1124 98.1512 0
      vertex -98.1124 98.1512 20
    endloop
  endfacet
  facet normal -0.81108 -0.584936 0
    outer loop
      vertex -98.1124 98.1512 0
      vertex -98.0373 98.047 0
      vertex -98.1124 98.1512 20
    endloop
  endfacet
  facet normal -0.81108 -0.584936 0
    outer loop
      vertex -98.1124 98.1512 20
      vertex -98.0373 98.047 0
      vertex -98.0373 98.047 20
    endloop
  endfacet
  facet normal -0.743966 -0.668218 0
    outer loop
      vertex -98.0373 98.047 0
      vertex -97.9515 97.9515 0
      vertex -98.0373 98.047 20
    endloop
  endfacet
  facet normal -0.743966 -0.668218 0
    outer loop
      vertex -98.0373 98.047 20
      vertex -97.9515 97.9515 0
      vertex -97.9515 97.9515 20
    endloop
  endfacet
  facet normal 0.707107 -0.707107 0
    outer loop
      vertex -2.29366 96.2937 20
      vertex -47.8795 50.7079 20
      vertex -2.29366 96.2937 0
    endloop
  endfacet
  facet normal 0.707107 -0.707107 0
    outer loop
      vertex -47.8795 50.7079 20
      vertex -47.8795 50.7079 0
      vertex -2.29366 96.2937 0
    endloop
  endfacet
  facet normal -0.707108 -0.707105 0
    outer loop
      vertex -2 96 20
      vertex -2.29366 96.2937 20
      vertex -2 96 0
    endloop
  endfacet
  facet normal -0.707108 -0.707105 0
    outer loop
      vertex -2.29366 96.2937 20
      vertex -2.29366 96.2937 0
      vertex -2 96 0
    endloop
  endfacet
  facet normal 0.707614 0.706599 0
    outer loop
      vertex -97.1029 100 20
      vertex -93.3209 96.2125 20
      vertex -97.1029 100 0
    endloop
  endfacet
  facet normal 0.707614 0.706599 0
    outer loop
      vertex -93.3209 96.2125 20
      vertex -93.3209 96.2125 0
      vertex -97.1029 100 0
    endloop
  endfacet
  facet normal -0.706599 0.707614 0
    outer loop
      vertex -49.2929 52.1213 20
      vertex -1.34549 100 20
      vertex -49.2929 52.1213 0
    endloop
  endfacet
  facet normal -0.706599 0.707614 0
    outer loop
      vertex -1.34549 100 20
      vertex -1.34549 100 0
      vertex -49.2929 52.1213 0
    endloop
  endfacet
  facet normal 0.0541445 0 0.998533
    outer loop
      vertex -8 41 17.2
      vertex -7.87026 31 17.193
      vertex -7.87026 41 17.193
    endloop
  endfacet
  facet normal 0.161776 0 0.986828
    outer loop
      vertex -7.87026 31 17.193
      vertex -7.74204 31 17.1719
      vertex -7.87026 41 17.193
    endloop
  endfacet
  facet normal 0.161776 0 0.986828
    outer loop
      vertex -7.87026 41 17.193
      vertex -7.74204 31 17.1719
      vertex -7.74204 41 17.1719
    endloop
  endfacet
  facet normal 0.26754 0 0.963547
    outer loop
      vertex -7.74204 31 17.1719
      vertex -7.61684 31 17.1372
      vertex -7.74204 41 17.1719
    endloop
  endfacet
  facet normal 0.26754 0 0.963547
    outer loop
      vertex -7.74204 41 17.1719
      vertex -7.61684 31 17.1372
      vertex -7.61684 41 17.1372
    endloop
  endfacet
  facet normal 0.370127 0 0.928981
    outer loop
      vertex -7.61684 31 17.1372
      vertex -7.49613 31 17.0891
      vertex -7.61684 41 17.1372
    endloop
  endfacet
  facet normal 0.370127 0 0.928981
    outer loop
      vertex -7.61684 41 17.1372
      vertex -7.49613 31 17.0891
      vertex -7.49613 41 17.0891
    endloop
  endfacet
  facet normal 0.468409 0 0.883512
    outer loop
      vertex -7.49613 31 17.0891
      vertex -7.38134 31 17.0282
      vertex -7.49613 41 17.0891
    endloop
  endfacet
  facet normal 0.468409 0 0.883512
    outer loop
      vertex -7.49613 41 17.0891
      vertex -7.38134 31 17.0282
      vertex -7.38134 41 17.0282
    endloop
  endfacet
  facet normal 0.561187 0 0.827689
    outer loop
      vertex -7.38134 31 17.0282
      vertex -7.27379 31 16.9553
      vertex -7.38134 41 17.0282
    endloop
  endfacet
  facet normal 0.561187 0 0.827689
    outer loop
      vertex -7.38134 41 17.0282
      vertex -7.27379 31 16.9553
      vertex -7.27379 41 16.9553
    endloop
  endfacet
  facet normal 0.647386 0 0.762162
    outer loop
      vertex -7.27379 31 16.9553
      vertex -7.17476 31 16.8712
      vertex -7.27379 41 16.9553
    endloop
  endfacet
  facet normal 0.647386 0 0.762162
    outer loop
      vertex -7.27379 41 16.9553
      vertex -7.17476 31 16.8712
      vertex -7.17476 41 16.8712
    endloop
  endfacet
  facet normal 0.725999 0 0.687695
    outer loop
      vertex -7.17476 31 16.8712
      vertex -7.08541 31 16.7769
      vertex -7.17476 41 16.8712
    endloop
  endfacet
  facet normal 0.725999 0 0.687695
    outer loop
      vertex -7.17476 41 16.8712
      vertex -7.08541 31 16.7769
      vertex -7.08541 41 16.7769
    endloop
  endfacet
  facet normal 0.79609 0 0.605178
    outer loop
      vertex -7.08541 31 16.7769
      vertex -7.00677 31 16.6734
      vertex -7.08541 41 16.7769
    endloop
  endfacet
  facet normal 0.79609 0 0.605178
    outer loop
      vertex -7.08541 41 16.7769
      vertex -7.00677 31 16.6734
      vertex -7.00677 41 16.6734
    endloop
  endfacet
  facet normal 0.85686 0 0.515549
    outer loop
      vertex -7.00677 31 16.6734
      vertex -6.93979 31 16.5621
      vertex -7.00677 41 16.6734
    endloop
  endfacet
  facet normal 0.85686 0 0.515549
    outer loop
      vertex -7.00677 41 16.6734
      vertex -6.93979 31 16.5621
      vertex -6.93979 41 16.5621
    endloop
  endfacet
  facet normal 0.907574 0 0.419891
    outer loop
      vertex -6.93979 31 16.5621
      vertex -6.88523 31 16.4442
      vertex -6.93979 41 16.5621
    endloop
  endfacet
  facet normal 0.907574 0 0.419891
    outer loop
      vertex -6.93979 41 16.5621
      vertex -6.88523 31 16.4442
      vertex -6.88523 41 16.4442
    endloop
  endfacet
  facet normal 0.947654 0 0.319299
    outer loop
      vertex -6.88523 31 16.4442
      vertex -6.84374 31 16.321
      vertex -6.88523 41 16.4442
    endloop
  endfacet
  facet normal 0.947654 0 0.319299
    outer loop
      vertex -6.88523 41 16.4442
      vertex -6.84374 31 16.321
      vertex -6.84374 41 16.321
    endloop
  endfacet
  facet normal 0.97662 0 0.214972
    outer loop
      vertex -6.84374 31 16.321
      vertex -6.81581 31 16.1941
      vertex -6.84374 41 16.321
    endloop
  endfacet
  facet normal 0.97662 0 0.214972
    outer loop
      vertex -6.84374 41 16.321
      vertex -6.81581 31 16.1941
      vertex -6.81581 41 16.1941
    endloop
  endfacet
  facet normal 0.994138 0 0.10812
    outer loop
      vertex -6.81581 31 16.1941
      vertex -6.80176 31 16.065
      vertex -6.81581 41 16.1941
    endloop
  endfacet
  facet normal 0.994138 0 0.10812
    outer loop
      vertex -6.81581 41 16.1941
      vertex -6.80176 31 16.065
      vertex -6.80176 41 16.065
    endloop
  endfacet
  facet normal 1 0 0
    outer loop
      vertex -6.80176 31 16.065
      vertex -6.80176 31 15.935
      vertex -6.80176 41 16.065
    endloop
  endfacet
  facet normal 1 0 0
    outer loop
      vertex -6.80176 41 16.065
      vertex -6.80176 31 15.935
      vertex -6.80176 41 15.935
    endloop
  endfacet
  facet normal 0.994138 0 -0.10812
    outer loop
      vertex -6.80176 31 15.935
      vertex -6.81581 31 15.8059
      vertex -6.80176 41 15.935
    endloop
  endfacet
  facet normal 0.994138 0 -0.10812
    outer loop
      vertex -6.80176 41 15.935
      vertex -6.81581 31 15.8059
      vertex -6.81581 41 15.8059
    endloop
  endfacet
  facet normal 0.97662 0 -0.214972
    outer loop
      vertex -6.81581 31 15.8059
      vertex -6.84374 31 15.679
      vertex -6.81581 41 15.8059
    endloop
  endfacet
  facet normal 0.97662 0 -0.214972
    outer loop
      vertex -6.81581 41 15.8059
      vertex -6.84374 31 15.679
      vertex -6.84374 41 15.679
    endloop
  endfacet
  facet normal 0.947654 0 -0.319299
    outer loop
      vertex -6.84374 31 15.679
      vertex -6.88523 31 15.5558
      vertex -6.84374 41 15.679
    endloop
  endfacet
  facet normal 0.947654 0 -0.319299
    outer loop
      vertex -6.84374 41 15.679
      vertex -6.88523 31 15.5558
      vertex -6.88523 41 15.5558
    endloop
  endfacet
  facet normal 0.907574 0 -0.419891
    outer loop
      vertex -6.88523 31 15.5558
      vertex -6.93979 31 15.4379
      vertex -6.88523 41 15.5558
    endloop
  endfacet
  facet normal 0.907574 0 -0.419891
    outer loop
      vertex -6.88523 41 15.5558
      vertex -6.93979 31 15.4379
      vertex -6.93979 41 15.4379
    endloop
  endfacet
  facet normal 0.856858 0 -0.515552
    outer loop
      vertex -6.93979 31 15.4379
      vertex -7.00677 31 15.3266
      vertex -6.93979 41 15.4379
    endloop
  endfacet
  facet normal 0.856858 0 -0.515552
    outer loop
      vertex -6.93979 41 15.4379
      vertex -7.00677 31 15.3266
      vertex -7.00677 41 15.3266
    endloop
  endfacet
  facet normal 0.796093 0 -0.605174
    outer loop
      vertex -7.00677 31 15.3266
      vertex -7.08541 31 15.2231
      vertex -7.00677 41 15.3266
    endloop
  endfacet
  facet normal 0.796093 0 -0.605174
    outer loop
      vertex -7.00677 41 15.3266
      vertex -7.08541 31 15.2231
      vertex -7.08541 41 15.2231
    endloop
  endfacet
  facet normal 0.725996 0 -0.687699
    outer loop
      vertex -7.08541 31 15.2231
      vertex -7.17476 31 15.1288
      vertex -7.08541 41 15.2231
    endloop
  endfacet
  facet normal 0.725996 0 -0.687699
    outer loop
      vertex -7.08541 41 15.2231
      vertex -7.17476 31 15.1288
      vertex -7.17476 41 15.1288
    endloop
  endfacet
  facet normal 0.647386 0 -0.762162
    outer loop
      vertex -7.17476 31 15.1288
      vertex -7.27379 31 15.0447
      vertex -7.17476 41 15.1288
    endloop
  endfacet
  facet normal 0.647386 0 -0.762162
    outer loop
      vertex -7.17476 41 15.1288
      vertex -7.27379 31 15.0447
      vertex -7.27379 41 15.0447
    endloop
  endfacet
  facet normal 0.561187 0 -0.827689
    outer loop
      vertex -7.27379 31 15.0447
      vertex -7.38134 31 14.9718
      vertex -7.27379 41 15.0447
    endloop
  endfacet
  facet normal 0.561187 0 -0.827689
    outer loop
      vertex -7.27379 41 15.0447
      vertex -7.38134 31 14.9718
      vertex -7.38134 41 14.9718
    endloop
  endfacet
  facet normal 0.468409 0 -0.883512
    outer loop
      vertex -7.38134 31 14.9718
      vertex -7.49613 31 14.9109
      vertex -7.38134 41 14.9718
    endloop
  endfacet
  facet normal 0.468409 0 -0.883512
    outer loop
      vertex -7.38134 41 14.9718
      vertex -7.49613 31 14.9109
      vertex -7.49613 41 14.9109
    endloop
  endfacet
  facet normal 0.37014 0 -0.928976
    outer loop
      vertex -7.49613 31 14.9109
      vertex -7.61684 31 14.8628
      vertex -7.49613 41 14.9109
    endloop
  endfacet
  facet normal 0.37014 0 -0.928976
    outer loop
      vertex -7.49613 41 14.9109
      vertex -7.61684 31 14.8628
      vertex -7.61684 41 14.8628
    endloop
  endfacet
  facet normal 0.267526 0 -0.963551
    outer loop
      vertex -7.61684 31 14.8628
      vertex -7.74204 31 14.8281
      vertex -7.61684 41 14.8628
    endloop
  endfacet
  facet normal 0.267526 0 -0.963551
    outer loop
      vertex -7.61684 41 14.8628
      vertex -7.74204 31 14.8281
      vertex -7.74204 41 14.8281
    endloop
  endfacet
  facet normal 0.161783 0 -0.986826
    outer loop
      vertex -7.74204 31 14.8281
      vertex -7.87026 31 14.807
      vertex -7.74204 41 14.8281
    endloop
  endfacet
  facet normal 0.161783 0 -0.986826
    outer loop
      vertex -7.74204 41 14.8281
      vertex -7.87026 31 14.807
      vertex -7.87026 41 14.807
    endloop
  endfacet
  facet normal 0.0541373 0 -0.998534
    outer loop
      vertex -7.87026 31 14.807
      vertex -8 31 14.8
      vertex -7.87026 41 14.807
    endloop
  endfacet
  facet normal 0.0541373 0 -0.998534
    outer loop
      vertex -7.87026 41 14.807
      vertex -8 31 14.8
      vertex -8 41 14.8
    endloop
  endfacet
  facet normal -0.0541377 0 -0.998533
    outer loop
      vertex -8 31 14.8
      vertex -8.12974 31 14.807
      vertex -8 41 14.8
    endloop
  endfacet
  facet normal -0.0541377 0 -0.998533
    outer loop
      vertex -8 41 14.8
      vertex -8.12974 31 14.807
      vertex -8.12974 41 14.807
    endloop
  endfacet
  facet normal -0.161782 0 -0.986827
    outer loop
      vertex -8.12974 31 14.807
      vertex -8.25796 31 14.8281
      vertex -8.12974 41 14.807
    endloop
  endfacet
  facet normal -0.161782 0 -0.986827
    outer loop
      vertex -8.12974 41 14.807
      vertex -8.25796 31 14.8281
      vertex -8.25796 41 14.8281
    endloop
  endfacet
  facet normal -0.267528 0 -0.96355
    outer loop
      vertex -8.25796 31 14.8281
      vertex -8.38316 31 14.8628
      vertex -8.25796 41 14.8281
    endloop
  endfacet
  facet normal -0.267528 0 -0.96355
    outer loop
      vertex -8.25796 41 14.8281
      vertex -8.38316 31 14.8628
      vertex -8.38316 41 14.8628
    endloop
  endfacet
  facet normal -0.370137 0 -0.928977
    outer loop
      vertex -8.38316 31 14.8628
      vertex -8.50387 31 14.9109
      vertex -8.38316 41 14.8628
    endloop
  endfacet
  facet normal -0.370137 0 -0.928977
    outer loop
      vertex -8.38316 41 14.8628
      vertex -8.50387 31 14.9109
      vertex -8.50387 41 14.9109
    endloop
  endfacet
  facet normal -0.468409 0 -0.883512
    outer loop
      vertex -8.50387 31 14.9109
      vertex -8.61866 31 14.9718
      vertex -8.50387 41 14.9109
    endloop
  endfacet
  facet normal -0.468409 0 -0.883512
    outer loop
      vertex -8.50387 41 14.9109
      vertex -8.61866 31 14.9718
      vertex -8.61866 41 14.9718
    endloop
  endfacet
  facet normal -0.561187 0 -0.827689
    outer loop
      vertex -8.61866 31 14.9718
      vertex -8.72621 31 15.0447
      vertex -8.61866 41 14.9718
    endloop
  endfacet
  facet normal -0.561187 0 -0.827689
    outer loop
      vertex -8.61866 41 14.9718
      vertex -8.72621 31 15.0447
      vertex -8.72621 41 15.0447
    endloop
  endfacet
  facet normal -0.647386 0 -0.762162
    outer loop
      vertex -8.72621 31 15.0447
      vertex -8.82524 31 15.1288
      vertex -8.72621 41 15.0447
    endloop
  endfacet
  facet normal -0.647386 0 -0.762162
    outer loop
      vertex -8.72621 41 15.0447
      vertex -8.82524 31 15.1288
      vertex -8.82524 41 15.1288
    endloop
  endfacet
  facet normal -0.725996 0 -0.687699
    outer loop
      vertex -8.82524 31 15.1288
      vertex -8.91459 31 15.2231
      vertex -8.82524 41 15.1288
    endloop
  endfacet
  facet normal -0.725996 0 -0.687699
    outer loop
      vertex -8.82524 41 15.1288
      vertex -8.91459 31 15.2231
      vertex -8.91459 41 15.2231
    endloop
  endfacet
  facet normal -0.796093 0 -0.605174
    outer loop
      vertex -8.91459 31 15.2231
      vertex -8.99323 31 15.3266
      vertex -8.91459 41 15.2231
    endloop
  endfacet
  facet normal -0.796093 0 -0.605174
    outer loop
      vertex -8.91459 41 15.2231
      vertex -8.99323 31 15.3266
      vertex -8.99323 41 15.3266
    endloop
  endfacet
  facet normal -0.85686 0 -0.515549
    outer loop
      vertex -8.99323 31 15.3266
      vertex -9.06021 31 15.4379
      vertex -8.99323 41 15.3266
    endloop
  endfacet
  facet normal -0.85686 0 -0.515549
    outer loop
      vertex -8.99323 41 15.3266
      vertex -9.06021 31 15.4379
      vertex -9.06021 41 15.4379
    endloop
  endfacet
  facet normal -0.907574 0 -0.419891
    outer loop
      vertex -9.06021 31 15.4379
      vertex -9.11477 31 15.5558
      vertex -9.06021 41 15.4379
    endloop
  endfacet
  facet normal -0.907574 0 -0.419891
    outer loop
      vertex -9.06021 41 15.4379
      vertex -9.11477 31 15.5558
      vertex -9.11477 41 15.5558
    endloop
  endfacet
  facet normal -0.947654 0 -0.319299
    outer loop
      vertex -9.11477 31 15.5558
      vertex -9.15626 31 15.679
      vertex -9.11477 41 15.5558
    endloop
  endfacet
  facet normal -0.947654 0 -0.319299
    outer loop
      vertex -9.11477 41 15.5558
      vertex -9.15626 31 15.679
      vertex -9.15626 41 15.679
    endloop
  endfacet
  facet normal -0.97662 0 -0.214975
    outer loop
      vertex -9.15626 31 15.679
      vertex -9.18419 31 15.8059
      vertex -9.15626 41 15.679
    endloop
  endfacet
  facet normal -0.97662 0 -0.214975
    outer loop
      vertex -9.15626 41 15.679
      vertex -9.18419 31 15.8059
      vertex -9.18419 41 15.8059
    endloop
  endfacet
  facet normal -0.994138 0 -0.108117
    outer loop
      vertex -9.18419 31 15.8059
      vertex -9.19824 31 15.935
      vertex -9.18419 41 15.8059
    endloop
  endfacet
  facet normal -0.994138 0 -0.108117
    outer loop
      vertex -9.18419 41 15.8059
      vertex -9.19824 31 15.935
      vertex -9.19824 41 15.935
    endloop
  endfacet
  facet normal -1 0 0
    outer loop
      vertex -9.19824 31 15.935
      vertex -9.19824 31 16.065
      vertex -9.19824 41 15.935
    endloop
  endfacet
  facet normal -1 0 0
    outer loop
      vertex -9.19824 41 15.935
      vertex -9.19824 31 16.065
      vertex -9.19824 41 16.065
    endloop
  endfacet
  facet normal -0.994138 0 0.108117
    outer loop
      vertex -9.19824 31 16.065
      vertex -9.18419 31 16.1941
      vertex -9.19824 41 16.065
    endloop
  endfacet
  facet normal -0.994138 0 0.108117
    outer loop
      vertex -9.19824 41 16.065
      vertex -9.18419 31 16.1941
      vertex -9.18419 41 16.1941
    endloop
  endfacet
  facet normal -0.97662 0 0.214975
    outer loop
      vertex -9.18419 31 16.1941
      vertex -9.15626 31 16.321
      vertex -9.18419 41 16.1941
    endloop
  endfacet
  facet normal -0.97662 0 0.214975
    outer loop
      vertex -9.18419 41 16.1941
      vertex -9.15626 31 16.321
      vertex -9.15626 41 16.321
    endloop
  endfacet
  facet normal -0.947654 0 0.319299
    outer loop
      vertex -9.15626 31 16.321
      vertex -9.11477 31 16.4442
      vertex -9.15626 41 16.321
    endloop
  endfacet
  facet normal -0.947654 0 0.319299
    outer loop
      vertex -9.15626 41 16.321
      vertex -9.11477 31 16.4442
      vertex -9.11477 41 16.4442
    endloop
  endfacet
  facet normal -0.907574 0 0.419891
    outer loop
      vertex -9.11477 31 16.4442
      vertex -9.06021 31 16.5621
      vertex -9.11477 41 16.4442
    endloop
  endfacet
  facet normal -0.907574 0 0.419891
    outer loop
      vertex -9.11477 41 16.4442
      vertex -9.06021 31 16.5621
      vertex -9.06021 41 16.5621
    endloop
  endfacet
  facet normal -0.856862 0 0.515546
    outer loop
      vertex -9.06021 31 16.5621
      vertex -8.99323 31 16.6734
      vertex -9.06021 41 16.5621
    endloop
  endfacet
  facet normal -0.856862 0 0.515546
    outer loop
      vertex -9.06021 41 16.5621
      vertex -8.99323 31 16.6734
      vertex -8.99323 41 16.6734
    endloop
  endfacet
  facet normal -0.79609 0 0.605178
    outer loop
      vertex -8.99323 31 16.6734
      vertex -8.91459 31 16.7769
      vertex -8.99323 41 16.6734
    endloop
  endfacet
  facet normal -0.79609 0 0.605178
    outer loop
      vertex -8.99323 41 16.6734
      vertex -8.91459 31 16.7769
      vertex -8.91459 41 16.7769
    endloop
  endfacet
  facet normal -0.725999 0 0.687695
    outer loop
      vertex -8.91459 31 16.7769
      vertex -8.82524 31 16.8712
      vertex -8.91459 41 16.7769
    endloop
  endfacet
  facet normal -0.725999 0 0.687695
    outer loop
      vertex -8.91459 41 16.7769
      vertex -8.82524 31 16.8712
      vertex -8.82524 41 16.8712
    endloop
  endfacet
  facet normal -0.647386 0 0.762162
    outer loop
      vertex -8.82524 31 16.8712
      vertex -8.72621 31 16.9553
      vertex -8.82524 41 16.8712
    endloop
  endfacet
  facet normal -0.647386 0 0.762162
    outer loop
      vertex -8.82524 41 16.8712
      vertex -8.72621 31 16.9553
      vertex -8.72621 41 16.9553
    endloop
  endfacet
  facet normal -0.561187 0 0.827689
    outer loop
      vertex -8.72621 31 16.9553
      vertex -8.61866 31 17.0282
      vertex -8.72621 41 16.9553
    endloop
  endfacet
  facet normal -0.561187 0 0.827689
    outer loop
      vertex -8.72621 41 16.9553
      vertex -8.61866 31 17.0282
      vertex -8.61866 41 17.0282
    endloop
  endfacet
  facet normal -0.468409 0 0.883512
    outer loop
      vertex -8.61866 31 17.0282
      vertex -8.50387 31 17.0891
      vertex -8.61866 41 17.0282
    endloop
  endfacet
  facet normal -0.468409 0 0.883512
    outer loop
      vertex -8.61866 41 17.0282
      vertex -8.50387 31 17.0891
      vertex -8.50387 41 17.0891
    endloop
  endfacet
  facet normal -0.370125 0 0.928982
    outer loop
      vertex -8.50387 31 17.0891
      vertex -8.38316 31 17.1372
      vertex -8.50387 41 17.0891
    endloop
  endfacet
  facet normal -0.370125 0 0.928982
    outer loop
      vertex -8.50387 41 17.0891
      vertex -8.38316 31 17.1372
      vertex -8.38316 41 17.1372
    endloop
  endfacet
  facet normal -0.267541 0 0.963546
    outer loop
      vertex -8.38316 31 17.1372
      vertex -8.25796 31 17.1719
      vertex -8.38316 41 17.1372
    endloop
  endfacet
  facet normal -0.267541 0 0.963546
    outer loop
      vertex -8.38316 41 17.1372
      vertex -8.25796 31 17.1719
      vertex -8.25796 41 17.1719
    endloop
  endfacet
  facet normal -0.161775 0 0.986828
    outer loop
      vertex -8.25796 31 17.1719
      vertex -8.12974 31 17.193
      vertex -8.25796 41 17.1719
    endloop
  endfacet
  facet normal -0.161775 0 0.986828
    outer loop
      vertex -8.25796 41 17.1719
      vertex -8.12974 31 17.193
      vertex -8.12974 41 17.193
    endloop
  endfacet
  facet normal -0.0541448 0 0.998533
    outer loop
      vertex -8.12974 31 17.193
      vertex -8 31 17.2
      vertex -8.12974 41 17.193
    endloop
  endfacet
  facet normal -0.0541448 0 0.998533
    outer loop
      vertex -8.12974 41 17.193
      vertex -8 31 17.2
      vertex -8 41 17.2
    endloop
  endfacet
  facet normal 0.0541445 0 0.998533
    outer loop
      vertex -8 31 17.2
      vertex -7.87026 31 17.193
      vertex -8 41 17.2
    endloop
  endfacet
  facet normal 0 -1 0
    outer loop
      vertex -8 31 14.8
      vertex -7.87026 31 14.807
      vertex -8 31 16
    endloop
  endfacet
  facet normal 0 -1 0
    outer loop
      vertex -8.38316 31 14.8628
      vertex -8.25796 31 14.8281
      vertex -8 31 16
    endloop
  endfacet
  facet normal 0 -1 0
    outer loop
      vertex -8.25796 31 14.8281
      vertex -8.12974 31 14.807
      vertex -8 31 16
    endloop
  endfacet
  facet normal 0 -1 0
    outer loop
      vertex -8 31 16
      vertex -8.12974 31 14.807
      vertex -8 31 14.8
    endloop
  endfacet
  facet normal 0 -1 0
    outer loop
      vertex -8.72621 31 15.0447
      vertex -8.61866 31 14.9718
      vertex -8 31 16
    endloop
  endfacet
  facet normal 0 -1 0
    outer loop
      vertex -8.61866 31 14.9718
      vertex -8.50387 31 14.9109
      vertex -8 31 16
    endloop
  endfacet
  facet normal 0 -1 0
    outer loop
      vertex -8 31 16
      vertex -8.50387 31 14.9109
      vertex -8.38316 31 14.8628
    endloop
  endfacet
  facet normal 0 -1 0
    outer loop
      vertex -8.99323 31 15.3266
      vertex -8.91459 31 15.2231
      vertex -8 31 16
    endloop
  endfacet
  facet normal 0 -1 0
    outer loop
      vertex -8.91459 31 15.2231
      vertex -8.82524 31 15.1288
      vertex -8 31 16
    endloop
  endfacet
  facet normal 0 -1 0
    outer loop
      vertex -8 31 16
      vertex -8.82524 31 15.1288
      vertex -8.72621 31 15.0447
    endloop
  endfacet
  facet normal 0 -1 0
    outer loop
      vertex -9.15626 31 15.679
      vertex -9.11477 31 15.5558
      vertex -8 31 16
    endloop
  endfacet
  facet normal 0 -1 0
    outer loop
      vertex -9.11477 31 15.5558
      vertex -9.06021 31 15.4379
      vertex -8 31 16
    endloop
  endfacet
  facet normal 0 -1 0
    outer loop
      vertex -8 31 16
      vertex -9.06021 31 15.4379
      vertex -8.99323 31 15.3266
    endloop
  endfacet
  facet normal 0 -1 0
    outer loop
      vertex -9.19824 31 16.065
      vertex -9.19824 31 15.935
      vertex -8 31 16
    endloop
  endfacet
  facet normal 0 -1 0
    outer loop
      vertex -9.19824 31 15.935
      vertex -9.18419 31 15.8059
      vertex -8 31 16
    endloop
  endfacet
  facet normal 0 -1 0
    outer loop
      vertex -8 31 16
      vertex -9.18419 31 15.8059
      vertex -9.15626 31 15.679
    endloop
  endfacet
  facet normal 0 -1 0
    outer loop
      vertex -9.11477 31 16.4442
      vertex -9.15626 31 16.321
      vertex -8 31 16
    endloop
  endfacet
  facet normal 0 -1 0
    outer loop
      vertex -9.15626 31 16.321
      vertex -9.18419 31 16.1941
      vertex -8 31 16
    endloop
  endfacet
  facet normal 0 -1 0
    outer loop
      vertex -8 31 16
      vertex -9.18419 31 16.1941
      vertex -9.19824 31 16.065
    endloop
  endfacet
  facet normal 0 -1 0
    outer loop
      vertex -8.91459 31 16.7769
      vertex -8.99323 31 16.6734
      vertex -8 31 16
    endloop
  endfacet
  facet normal 0 -1 0
    outer loop
      vertex -8.99323 31 16.6734
      vertex -9.06021 31 16.5621
      vertex -8 31 16
    endloop
  endfacet
  facet normal 0 -1 0
    outer loop
      vertex -8 31 16
      vertex -9.06021 31 16.5621
      vertex -9.11477 31 16.4442
    endloop
  endfacet
  facet normal 0 -1 0
    outer loop
      vertex -8.61866 31 17.0282
      vertex -8.72621 31 16.9553
      vertex -8 31 16
    endloop
  endfacet
  facet normal 0 -1 0
    outer loop
      vertex -8.72621 31 16.9553
      vertex -8.82524 31 16.8712
      vertex -8 31 16
    endloop
  endfacet
  facet normal 0 -1 0
    outer loop
      vertex -8 31 16
      vertex -8.82524 31 16.8712
      vertex -8.91459 31 16.7769
    endloop
  endfacet
  facet normal 0 -1 0
    outer loop
      vertex -8.25796 31 17.1719
      vertex -8.38316 31 17.1372
      vertex -8 31 16
    endloop
  endfacet
  facet normal 0 -1 0
    outer loop
      vertex -8.38316 31 17.1372
      vertex -8.50387 31 17.0891
      vertex -8 31 16
    endloop
  endfacet
  facet normal 0 -1 0
    outer loop
      vertex -8 31 16
      vertex -8.50387 31 17.0891
      vertex -8.61866 31 17.0282
    endloop
  endfacet
  facet normal 0 -1 0
    outer loop
      vertex -7.87026 31 17.193
      vertex -8 31 17.2
      vertex -8 31 16
    endloop
  endfacet
  facet normal 0 -1 0
    outer loop
      vertex -8 31 17.2
      vertex -8.12974 31 17.193
      vertex -8 31 16
    endloop
  endfacet
  facet normal 0 -1 0
    outer loop
      vertex -8 31 16
      vertex -8.12974 31 17.193
      vertex -8.25796 31 17.1719
    endloop
  endfacet
  facet normal 0 -1 0
    outer loop
      vertex -7.49613 31 17.0891
      vertex -7.61684 31 17.1372
      vertex -8 31 16
    endloop
  endfacet
  facet normal 0 -1 0
    outer loop
      vertex -7.61684 31 17.1372
      vertex -7.74204 31 17.1719
      vertex -8 31 16
    endloop
  endfacet
  facet normal 0 -1 0
    outer loop
      vertex -8 31 16
      vertex -7.74204 31 17.1719
      vertex -7.87026 31 17.193
    endloop
  endfacet
  facet normal 0 -1 0
    outer loop
      vertex -7.17476 31 16.8712
      vertex -7.27379 31 16.9553
      vertex -8 31 16
    endloop
  endfacet
  facet normal 0 -1 0
    outer loop
      vertex -7.27379 31 16.9553
      vertex -7.38134 31 17.0282
      vertex -8 31 16
    endloop
  endfacet
  facet normal 0 -1 0
    outer loop
      vertex -8 31 16
      vertex -7.38134 31 17.0282
      vertex -7.49613 31 17.0891
    endloop
  endfacet
  facet normal 0 -1 0
    outer loop
      vertex -6.93979 31 16.5621
      vertex -7.00677 31 16.6734
      vertex -8 31 16
    endloop
  endfacet
  facet normal 0 -1 0
    outer loop
      vertex -7.00677 31 16.6734
      vertex -7.08541 31 16.7769
      vertex -8 31 16
    endloop
  endfacet
  facet normal 0 -1 0
    outer loop
      vertex -8 31 16
      vertex -7.08541 31 16.7769
      vertex -7.17476 31 16.8712
    endloop
  endfacet
  facet normal 0 -1 0
    outer loop
      vertex -6.81581 31 16.1941
      vertex -6.84374 31 16.321
      vertex -8 31 16
    endloop
  endfacet
  facet normal 0 -1 0
    outer loop
      vertex -6.84374 31 16.321
      vertex -6.88523 31 16.4442
      vertex -8 31 16
    endloop
  endfacet
  facet normal 0 -1 0
    outer loop
      vertex -8 31 16
      vertex -6.88523 31 16.4442
      vertex -6.93979 31 16.5621
    endloop
  endfacet
  facet normal 0 -1 0
    outer loop
      vertex -6.81581 31 15.8059
      vertex -6.80176 31 15.935
      vertex -8 31 16
    endloop
  endfacet
  facet normal 0 -1 0
    outer loop
      vertex -6.80176 31 15.935
      vertex -6.80176 31 16.065
      vertex -8 31 16
    endloop
  endfacet
  facet normal 0 -1 0
    outer loop
      vertex -8 31 16
      vertex -6.80176 31 16.065
      vertex -6.81581 31 16.1941
    endloop
  endfacet
  facet normal 0 -1 0
    outer loop
      vertex -6.93979 31 15.4379
      vertex -6.88523 31 15.5558
      vertex -8 31 16
    endloop
  endfacet
  facet normal 0 -1 0
    outer loop
      vertex -6.88523 31 15.5558
      vertex -6.84374 31 15.679
      vertex -8 31 16
    endloop
  endfacet
  facet normal 0 -1 0
    outer loop
      vertex -8 31 16
      vertex -6.84374 31 15.679
      vertex -6.81581 31 15.8059
    endloop
  endfacet
  facet normal 0 -1 0
    outer loop
      vertex -7.17476 31 15.1288
      vertex -7.08541 31 15.2231
      vertex -8 31 16
    endloop
  endfacet
  facet normal 0 -1 0
    outer loop
      vertex -7.08541 31 15.2231
      vertex -7.00677 31 15.3266
      vertex -8 31 16
    endloop
  endfacet
  facet normal 0 -1 0
    outer loop
      vertex -8 31 16
      vertex -7.00677 31 15.3266
      vertex -6.93979 31 15.4379
    endloop
  endfacet
  facet normal 0 -1 0
    outer loop
      vertex -7.49613 31 14.9109
      vertex -7.38134 31 14.9718
      vertex -8 31 16
    endloop
  endfacet
  facet normal 0 -1 0
    outer loop
      vertex -7.38134 31 14.9718
      vertex -7.27379 31 15.0447
      vertex -8 31 16
    endloop
  endfacet
  facet normal 0 -1 0
    outer loop
      vertex -8 31 16
      vertex -7.27379 31 15.0447
      vertex -7.17476 31 15.1288
    endloop
  endfacet
  facet normal 0 -1 0
    outer loop
      vertex -7.87026 31 14.807
      vertex -7.74204 31 14.8281
      vertex -8 31 16
    endloop
  endfacet
  facet normal 0 -1 0
    outer loop
      vertex -7.74204 31 14.8281
      vertex -7.61684 31 14.8628
      vertex -8 31 16
    endloop
  endfacet
  facet normal 0 -1 0
    outer loop
      vertex -8 31 16
      vertex -7.61684 31 14.8628
      vertex -7.49613 31 14.9109
    endloop
  endfacet
  facet normal 0 -1 0
    outer loop
      vertex -14 37.75 22.5
      vertex -13 37.75 22.5
      vertex -14 37.75 30
    endloop
  endfacet
  facet normal 0 -1 0
    outer loop
      vertex -13 37.75 22.5
      vertex -13 37.75 30
      vertex -14 37.75 30
    endloop
  endfacet
  facet normal 0 0 1
    outer loop
      vertex -14 29.25 22.5
      vertex -13 29.25 22.5
      vertex -14 37.75 22.5
    endloop
  endfacet
  facet normal 0 0 1
    outer loop
      vertex -13 29.25 22.5
      vertex -13 37.75 22.5
      vertex -14 37.75 22.5
    endloop
  endfacet
  facet normal 0 1 0
    outer loop
      vertex -14 29.25 22.5
      vertex -14 29.25 30
      vertex -13 29.25 22.5
    endloop
  endfacet
  facet normal 0 1 0
    outer loop
      vertex -14 29.25 30
      vertex -13 29.25 30
      vertex -13 29.25 22.5
    endloop
  endfacet
  facet normal 0 1 0
    outer loop
      vertex -2 29.25 22.5
      vertex -3 29.25 22.5
      vertex -2 29.25 30
    endloop
  endfacet
  facet normal 0 1 0
    outer loop
      vertex -3 29.25 22.5
      vertex -3 29.25 30
      vertex -2 29.25 30
    endloop
  endfacet
  facet normal 0 0 1
    outer loop
      vertex -2 29.25 22.5
      vertex -2 37.75 22.5
      vertex -3 29.25 22.5
    endloop
  endfacet
  facet normal 0 0 1
    outer loop
      vertex -2 37.75 22.5
      vertex -3 37.75 22.5
      vertex -3 29.25 22.5
    endloop
  endfacet
  facet normal 0 -1 0
    outer loop
      vertex -2 37.75 22.5
      vertex -2 37.75 30
      vertex -3 37.75 22.5
    endloop
  endfacet
  facet normal 0 -1 0
    outer loop
      vertex -2 37.75 30
      vertex -3 37.75 30
      vertex -3 37.75 22.5
    endloop
  endfacet
  facet normal -1 0 0
    outer loop
      vertex -5.25 41 21.5
      vertex -5.25 41 30
      vertex -5.25 42 21.5
    endloop
  endfacet
  facet normal -1 0 0
    outer loop
      vertex -5.25 41 30
      vertex -5.25 42 30
      vertex -5.25 42 21.5
    endloop
  endfacet
endsolid Mesh
